# xmcd CD database file
#
# Track frame offsets:
#	187
#	18812
#	37190
#	62195
#	85337
#	114150
#	138580
#	159815
#	186525
#	203567
#	215272
#
# Disc length: 3169 seconds
#
# Revision: 0
# Processed by: cddbd v1.5.1PL2 Copyright (c) Steve Scherf et al.
# Submitted via: CDex 1.50
#
DISCID=920c5f0b
DTITLE=G.D. Flickers - Shake !
DYEAR=1991
DGENRE=Rock
TTITLE0=GO TO HELL WITH ME
TTITLE1=HEARTBREAKER
TTITLE2=SHAKE
TTITLE3=TOO MUCH HOT CITY
TTITLE4=裏切リニ包マレテ (Stnding in The rain)
TTITLE5=システムの外から…
TTITLE6=This is not a game
TTITLE7=LONELY GOOD DAYS
TTITLE8=乱暴狼籍
TTITLE9=Bye・Bye・JAP!
TTITLE10=LOVE SONG
EXTD=YEAR: 1991
EXTT0=
EXTT1=
EXTT2=
EXTT3=
EXTT4=
EXTT5=
EXTT6=
EXTT7=
EXTT8=
EXTT9=
EXTT10=
PLAYORDER=
